<?xml version="1.0" encoding="UTF-8"?>
<!-- Generator: Adobe Illustrator 26.2.1, SVG Export Plug-In . SVG Version: 6.00 Build 0)  -->
<svg version="1.1" id="a" xmlns="http://www.w3.org/2000/svg" xmlns:xlink="http://www.w3.org/1999/xlink" x="0px" y="0px" viewBox="0 0 1090.6 534.5" style="enable-background:new 0 0 1090.6 534.5;" xml:space="preserve">
<style type="text/css">
	.st0{fill:#FFB600;}
	.st1{fill:#68BFDD;}
	.st2{fill:#CE202F;}
</style>
<path class="st0" d="M35.7,237.6L994.2,8.9c43.3-10.3,85,22.5,85,67.1v247.7c0,13.6-10,25.2-23.4,27.1l-1008,147  c-19.2,2.8-36.5-12.1-36.5-31.5V268.6C11.3,253.8,21.4,241,35.7,237.6L35.7,237.6z"/>
<g>
	<path d="M118.8,331.5l0-27.9c0-6.7-5-11.7-11.2-10.3c-6.2,1.4-11.2,8.5-11.2,15.2l0,96.9c0,6.7,5,11,11.2,9.7   c6.2-1.3,11.2-7.7,11.2-14.4l0-28.2l30.6-6.5l0,32c0,26.7-17.8,51.8-45.6,57.5l-1.9,0.4c-30.9,6.2-47.5-15.4-47.5-45.1v-97.7   c0-26.3,19.9-52.5,47.7-58.9l1.6-0.4c34-7.7,45.9,18.3,45.9,44.9l0,26L118.8,331.5L118.8,331.5z"/>
	<path d="M251.3,422.4l-29,5.9l-0.1-79l-16.9,3.6l0.1,78.8l-42.2,8.5L163,257.3c0-7.7,5.3-14.3,12.8-16l28.7-6.5l0.1,79.5l16.9-3.7   l-0.1-79.6l42.7-9.7l0.4,185C264.5,414.1,259,420.8,251.3,422.4L251.3,422.4z"/>
	<path d="M330.4,406.4l-2.6-21.6l-20.9,4.3l-2.1,22.5l-29.7,6l25.7-204.6l37.7-8.5L371,398.1L330.4,406.4L330.4,406.4z M315.1,314.1   l-6.1,49.8l14.7-3l-6-46.7C317.5,312.6,315.3,312.6,315.1,314.1L315.1,314.1z"/>
	<path d="M378.1,195.4l52.1-11.8c27.8-6.3,43.4,13.3,43.6,40.7c0.1,29.5-5.8,38.5-17.9,46.7v0.7c12.2,3.3,19.1,12.4,18.9,26.5   c-0.8,40.9-0.7,44.7-0.4,52.7c0.4,11.9,4.8,25.4,4.8,25.4l-38.4,7.8c-3.8-4.5-5.4-17.8-5.4-27.2l0.1-49c0-6.3-3.8-10-9.4-8.8   l-7.5,1.6l0.3,87.8l-40,8.1L378.1,195.4L378.1,195.4z M421.8,265.4c8.7-2.6,13.7-10.7,13.7-20.8l0-6.3c0-12.6-4.4-17.5-13.8-15.5   l-4,0.9l0.2,42.5L421.8,265.4L421.8,265.4z"/>
	<path d="M585.7,354.7l-21.6,4.4l-4.1-7.7c-4,6.1-15.6,15.2-27.8,17.7c-15,3-44.1-2.3-44.4-61l-0.3-78.7   c-0.2-44.3,28.4-68.7,49.3-73.4l2.2-0.5c24.3-5.5,43.2,18.6,43.3,44.6l0.1,25.6l-29,6.3l-0.1-22c0-8.5-6.3-14.2-13.5-12.6   c-6.9,1.5-13.1,10-13,18.4l0.5,102c0,6.3,5,10.6,10.4,9.5c5.6-1.2,10.3-7.4,10.2-13.8l-0.1-19.1l-10,2.1l-0.2-35l47.4-10.2   L585.7,354.7L585.7,354.7z"/>
	<path d="M641.5,221.7l30.7-6.6l0.2,38.4l-30.3,6.5l0.2,41.1l40.9-8.5l0.3,42.4l-65.5,13.3c-8.9,1.8-17.3-5-17.3-14.1l-1-177.2   c0-6.8,4.7-12.7,11.3-14.2l71.3-16.2l0.3,43.8l-41.2,9.1L641.5,221.7L641.5,221.7z"/>
	<path d="M793.9,245.5c0.7,46.5-25.4,72.2-50.1,77.2l-47.2,9.5l-1.3-208.7l56.1-12.7c21.5-4.9,41.3,9.6,41.6,56.2L793.9,245.5   L793.9,245.5z M735.7,285.6c8.7-1.8,18.4-7.8,18.3-17.9l-0.7-102.5c-0.1-13.4-7.6-13.2-18.5-10.8L735.7,285.6L735.7,285.6z"/>
</g>
<path d="M877.9,192.7c0.1,11,5.1,15.9,12.9,14.2c7.8-1.6,12.8-8.5,12.7-19.6l-1.3-110.7l30.6-6.9l1.4,119  c0.2,29.2-17.3,56.5-46.7,62.4l-1.9,0.4c-32.5,6.6-49.3-17.5-49.5-50.1L835,101.3c-0.1-5.5,3.7-10.3,9.1-11.5l32.6-7.4L877.9,192.7  L877.9,192.7z"/>
<path d="M1001.4,53.8l-52.1,11.8l1.1,188.4l-107,22.6L811.8,332l-473.4,98.2c-2.4,0.8-1.3,4.5,1.2,3.8l501.6-79.3l30.1-51.7  l94.9-17.6c14.3-2.7,24.6-15.1,24.6-29.6v-77.6l11.7-2.5c27.8-5.9,43.1-33.6,42.8-68.8C1045,68.4,1029.1,47.6,1001.4,53.8  L1001.4,53.8z M993.4,140.7l-4.1,0.9L989,96.2l4.1-0.9c9.4-2.1,13.8,3.3,13.9,16.7l0.1,6.7C1007.1,129.5,1002.2,138,993.4,140.7z"/>
<path class="st1" d="M945.3,271.4L852,286.9L822.2,340L704,365.3c-0.7,0.2-0.5,1.2,0.2,1.1l128.1-18.6l29.9-52l83.3-23.4  C946.2,272.3,946,271.3,945.3,271.4L945.3,271.4z"/>
<g>
	<path d="M568.7,482.9h-4.2v8.2h-4.3v-21.8h8.5c4.5,0,7.2,3.1,7.2,6.8S573.2,482.9,568.7,482.9z M568.5,473.1h-4v6h4   c1.9,0,3.2-1.2,3.2-3S570.4,473.1,568.5,473.1z"/>
	<path d="M592.6,491.1l-4.3-8.7h-3.1v8.7H581v-21.8h8.5c4.4,0,7.1,3,7.1,6.7c0,3.1-1.9,5-4,5.7l4.9,9.4H592.6L592.6,491.1z    M589.3,473.1h-4v5.8h4c1.9,0,3.1-1.2,3.1-2.9S591.1,473.1,589.3,473.1z"/>
	<path d="M602.6,491.1v-21.8h14.4v3.8h-10.1v5.1h8.6v3.8h-8.6v5.3h10.1v3.8L602.6,491.1L602.6,491.1z"/>
	<path d="M628.6,491.3c-3.3,0-5.8-0.7-8-2.9l2.8-2.8c1.4,1.4,3.2,1.8,5.3,1.8c2.5,0,3.9-1,3.9-2.7c0-0.8-0.2-1.4-0.7-1.8   c-0.4-0.4-0.9-0.6-1.9-0.8l-2.6-0.4c-1.9-0.3-3.2-0.9-4.2-1.8c-1-1-1.6-2.5-1.6-4.3c0-3.9,2.9-6.6,7.6-6.6c3,0,5.2,0.7,7,2.5   l-2.7,2.7c-1.4-1.3-3-1.5-4.5-1.5c-2.3,0-3.4,1.2-3.4,2.8c0,0.5,0.2,1.1,0.6,1.6c0.4,0.4,1.1,0.7,2,0.9l2.6,0.4   c2,0.3,3.2,0.8,4.2,1.7c1.2,1.1,1.7,2.7,1.7,4.6C636.7,488.9,633.2,491.3,628.6,491.3L628.6,491.3z"/>
	<path d="M642.3,491.1v-21.8h14.4v3.8h-10.1v5.1h8.6v3.8h-8.6v5.3h10.1v3.8L642.3,491.1L642.3,491.1z"/>
	<path d="M675.2,491.1l-8.6-13.4v13.4h-4.3v-21.8h3.8l8.6,13.3v-13.3h4.2v21.8H675.2L675.2,491.1z"/>
	<path d="M694,473.1v18h-4.3v-18H684v-3.8h15.6v3.8H694z"/>
	<path d="M704.7,491.1v-21.8H719v3.8h-10.1v5.1h8.6v3.8h-8.6v5.3H719v3.8L704.7,491.1L704.7,491.1z"/>
	<path d="M738.3,489c-1.4,1.4-3.5,2.1-5.8,2.1h-7.9v-21.8h7.9c2.3,0,4.3,0.6,5.8,2.1c2.5,2.5,2.2,5.5,2.2,8.7S740.8,486.6,738.3,489   L738.3,489z M735.4,474.4c-0.7-0.9-1.7-1.3-3.2-1.3H729v14.2h3.2c1.5,0,2.5-0.5,3.2-1.3c0.8-1,0.9-2.5,0.9-5.8   S736.2,475.4,735.4,474.4L735.4,474.4z"/>
	<path d="M764.2,491.1h-9.1v-21.8h8.8c4.3,0,6.7,2.4,6.7,6.1c0,2.4-1.6,4-2.7,4.5c1.3,0.6,3,2,3,4.9   C770.9,488.9,768.1,491.1,764.2,491.1L764.2,491.1z M763.5,473.1h-4.2v5h4.2c1.8,0,2.8-1,2.8-2.5S765.3,473.1,763.5,473.1z    M763.8,481.9h-4.4v5.4h4.4c1.9,0,2.8-1.2,2.8-2.7S765.7,482,763.8,481.9L763.8,481.9z"/>
	<path d="M785.1,482.2v8.9h-4.2v-8.9l-6.5-12.9h4.6l4.1,8.8l4-8.8h4.6L785.1,482.2L785.1,482.2z"/>
</g>
<g>
	<path d="M887.6,340.1l2-2.9c1.3,1,2.8,1.6,4.5,1.3c1.4-0.2,2.2-1,2.2-2v0c0-1-0.5-1.3-3-1.6c-3-0.3-5-0.9-4.9-4.2v0   c0.1-3,2.3-5.5,5.5-6.1c2.2-0.5,4.1-0.1,5.6,1l-1.8,3.2c-1.3-0.8-2.6-1.2-3.9-0.9s-2,1-2,1.8v0c0,1.1,0.6,1.3,3.2,1.6   c3.1,0.3,4.8,1.3,4.7,4.3v0c-0.1,3.4-2.5,5.7-5.7,6.2C891.7,342.1,889.4,341.5,887.6,340.1L887.6,340.1z"/>
	<path d="M902.9,322.8l3.6-0.8l3.8,6.7l4.2-8.3l3.6-0.8l-0.6,18.1l-3.3,0.5l0.4-11.7l-4.5,8.4h-0.1l-4-6.7l-0.3,11.4l-3.3,0.5   L902.9,322.8L902.9,322.8z"/>
</g>
<g>
	<g>
		<path d="M835.4,517.5c0,3.4,0.8,5.9,3.5,5.9c1.1,0,2.1-0.6,2.5-1.5v-2.3l-1.8-0.2v-1.6h6.5v1.6l-1.3,0.2v5.3H843    c-0.2-0.4-0.3-0.8-0.8-0.8c-0.7,0-1.7,1-4,1c-4.1,0-6.7-2.3-6.7-7.6s3.2-7.8,7.2-7.8c2,0,2.8,0.8,3.4,0.8c0.3,0,0.5-0.2,0.6-0.6    h1.5l0.2,4.9h-1.6c-0.6-2.5-1.7-3.5-3.7-3.5C836.5,511.5,835.4,513.7,835.4,517.5L835.4,517.5z"/>
		<path d="M852.3,514c2.7,0,4.6,1.5,4.6,4.7c0,0.3,0,0.8,0,1.2h-6.4c0,2,0.5,3.5,2.4,3.5c1.3,0,1.9-0.8,2.5-1.9l1.5,0.5    c-0.6,2-2.2,3.2-4.5,3.2c-3.5,0-5.3-2.2-5.3-5.4C847,516.1,849.3,514.1,852.3,514L852.3,514z M853.6,518.5v-0.4    c0-1.9-0.3-2.8-1.4-2.8c-1.2,0-1.6,1.4-1.7,3.2H853.6z"/>
		<path d="M862.4,514.2l0.2,2h0.1c0.5-1.1,1.5-2.2,3.6-2.2s3.3,1,3.3,3.5v5.8l1.3,0.2v1.5h-5.6v-1.5l1-0.2v-5.4    c0-1.2-0.2-1.9-1.3-1.9s-2,0.7-2,2.4v4.9l1.1,0.2v1.5h-5.7v-1.5l1.3-0.2V516l-1.3-0.2v-1.5L862.4,514.2L862.4,514.2z"/>
		<path d="M877.2,514c2.7,0,4.6,1.5,4.6,4.7c0,0.3,0,0.8,0,1.2h-6.4c0,2,0.5,3.5,2.4,3.5c1.3,0,1.9-0.8,2.5-1.9l1.5,0.5    c-0.6,2-2.2,3.2-4.5,3.2c-3.5,0-5.3-2.2-5.3-5.4C871.9,516.1,874.1,514.1,877.2,514L877.2,514z M878.4,518.5v-0.4    c0-1.9-0.3-2.8-1.4-2.8c-1.2,0-1.6,1.4-1.7,3.2H878.4z"/>
		<path d="M891.9,516.5h5.2v-4.6l-1.4-0.2V510h6.3v1.6l-1.4,0.2v11.3l1.4,0.2v1.6h-6.3v-1.6l1.4-0.2v-4.8h-5.2v4.8l1.4,0.2v1.6H887    v-1.6l1.4-0.2v-11.3l-1.4-0.2V510h6.3v1.6l-1.4,0.2V516.5L891.9,516.5z"/>
		<path d="M909.3,519.4v-1.5c0-1.6-0.4-2.6-1.9-2.6c-0.6,0-1.2,0.2-1.2,0.7c0,0.1,0,0.2,0,0.3h0.8c0.1,0.3,0.1,0.6,0.1,0.8    c0,0.8-0.5,1.5-1.6,1.5s-1.7-0.7-1.7-1.7c0-1.7,1.5-2.8,4.3-2.8s4.4,1,4.4,4v4.4c0,0.8,0,1.1,0.5,1.1c0.2,0,0.4,0,0.7-0.2l0.3,1.1    c-0.4,0.3-1.3,0.7-2.4,0.7c-1.4,0-1.9-0.6-2.2-1.6c-0.4,0.7-1.2,1.6-3,1.6c-1.7,0-3.1-0.7-3.1-2.8c0-2.3,1.6-3,4.4-3L909.3,519.4    L909.3,519.4z M909.3,521.8v-1.3h-0.8c-1.3,0-1.7,0.5-1.7,1.6c0,1,0.3,1.5,1.2,1.5C908.7,523.6,909.3,523.1,909.3,521.8z"/>
		<path d="M920.9,519.4v-1.5c0-1.6-0.4-2.6-1.9-2.6c-0.6,0-1.2,0.2-1.2,0.7c0,0.1,0,0.2,0,0.3h0.8c0.1,0.3,0.1,0.6,0.1,0.8    c0,0.8-0.5,1.5-1.6,1.5s-1.7-0.7-1.7-1.7c0-1.7,1.5-2.8,4.3-2.8s4.4,1,4.4,4v4.4c0,0.8,0,1.1,0.5,1.1c0.2,0,0.4,0,0.7-0.2l0.3,1.1    c-0.4,0.3-1.3,0.7-2.4,0.7c-1.4,0-1.9-0.6-2.2-1.6c-0.4,0.7-1.2,1.6-3,1.6c-1.7,0-3.1-0.7-3.1-2.8c0-2.3,1.6-3,4.4-3L920.9,519.4    L920.9,519.4z M920.9,521.8v-1.3h-0.8c-1.3,0-1.7,0.5-1.7,1.6c0,1,0.3,1.5,1.2,1.5C920.3,523.6,920.9,523.1,920.9,521.8    L920.9,521.8z"/>
		<path d="M926.6,521.5h1.3c0.3,1.3,1.4,2.2,3.1,2.2c1.2,0,1.8-0.4,1.8-1.2c0-1-1-1.1-2.2-1.3c-1.8-0.3-4-0.7-4-3.5    c0-2.2,1.7-3.6,4-3.6c1,0,1.6,0.3,2,0.5c0.2,0.1,0.3,0.1,0.4,0.1c0.3,0,0.3-0.2,0.4-0.5h1.1v3.3h-1.3c-0.6-1.4-1.3-2-2.7-2    c-0.8,0-1.6,0.3-1.6,1.1c0,0.9,0.9,1,2.1,1.3c1.8,0.3,4.1,0.8,4.1,3.6c0,2.4-1.6,3.7-3.9,3.7c-1.3,0-2.1-0.4-2.6-0.7    c-0.2-0.1-0.3-0.1-0.4-0.1c-0.2,0-0.3,0.2-0.4,0.6h-1.2L926.6,521.5L926.6,521.5z"/>
		<path d="M951.3,510l0.2,3.8h-0.6c-0.6-2.6-1.3-3.1-3.6-3.1h-2.6v6.2h1.3c1.8,0,2.3-0.7,2.6-2.6h0.5v6.3h-0.5    c-0.3-2.3-0.7-2.8-2.8-2.8h-1.1v6.2l3,0.2v0.6h-6.5v-0.6l1.8-0.2v-13.3l-1.8-0.2V510L951.3,510L951.3,510z"/>
		<path d="M957.3,514.2c3,0,4.6,2.2,4.6,5.5s-1.8,5.5-4.7,5.5s-4.6-2.2-4.6-5.5S954.5,514.2,957.3,514.2L957.3,514.2z M957.2,515.1    c-2.4,0-2.9,2.3-2.9,4.5s0.5,4.6,3,4.6s2.9-2.2,2.9-4.5S959.6,515.1,957.2,515.1L957.2,515.1z"/>
		<path d="M966.3,521.7c0,1.5,0.4,2.3,2.2,2.3s3.1-1,3.1-3v-5.7l-1.6-0.2v-0.7l3.1-0.1v9.7l1.4,0.2v0.7h-2.7l-0.2-1.8    c-0.7,1-1.9,2-3.7,2c-2.3,0-3.2-1.2-3.2-3.5v-6.4l-1.5-0.2v-0.7l3-0.1L966.3,521.7L966.3,521.7z"/>
		<path d="M978.9,514.3l0.1,2c0.6-1,1.9-2.1,3.7-2.1c2.3,0,3.2,1.2,3.2,3.7v6.2l1.4,0.2v0.7h-4.5v-0.7l1.6-0.2v-6.2    c0-1.7-0.4-2.5-2.2-2.5c-1.7,0-3.1,1.1-3.1,2.8v5.9l1.6,0.2v0.7h-4.5v-0.7l1.4-0.2v-8.8l-1.4-0.2v-0.7L978.9,514.3L978.9,514.3z"/>
		<path d="M996.4,515.5v-5.6l-1.8-0.2v-0.7l3.3-0.1v15.1l1.6,0.2v0.7h-3l-0.1-1.7c-0.6,0.9-1.6,1.9-3.4,1.9c-2.8,0-4.1-2.2-4.1-5.3    c0-3.6,1.8-5.7,4.5-5.7C994.5,514.2,995.5,514.5,996.4,515.5L996.4,515.5z M996.4,521.2v-3.3c0-2-1.4-2.7-2.7-2.7    c-2.3,0-3,1.8-3,4.5c0,2,0.4,4.4,2.8,4.4C994.9,524,996.4,522.8,996.4,521.2L996.4,521.2z"/>
		<path d="M1007,519.4V518c0-1.9-0.5-3-2.2-3c-0.6,0-2,0.1-2,1c0,0.1,0,0.2,0,0.3h0.7c0.1,0.2,0.1,0.5,0.1,0.7c0,0.7-0.5,1-1,1    c-0.6,0-1.1-0.4-1.1-1.2c0-1.5,1.4-2.6,3.6-2.6c2.5,0,3.5,1.1,3.5,4v4.9c0,1,0.2,1.2,0.7,1.2c0.2,0,0.5,0,0.7-0.1l0.2,0.7    c-0.4,0.2-0.7,0.2-1.2,0.2c-1,0-1.7-0.4-1.8-1.5c-0.8,1.1-2,1.5-3.1,1.5c-1.6,0-3-0.7-3-2.7c0-2.3,2-3.1,4.6-3.1L1007,519.4    L1007,519.4z M1007,521.9v-1.6h-1.4c-2.1,0-2.8,0.9-2.8,2.1s0.6,1.9,1.8,1.9C1005.7,524.2,1007,523.4,1007,521.9L1007,521.9z"/>
		<path d="M1012,515.3h-1.6v-0.9h1.6v-2.8l1.3-0.4h0.2v3.2h2.3v0.9h-2.3v7.2c0,1.2,0.3,1.7,1.2,1.7c0.8,0,1.2-0.3,1.6-1.5l0.7,0.2    c-0.4,1.7-1.2,2.3-2.6,2.3c-1.7,0-2.5-0.8-2.5-2.4L1012,515.3L1012,515.3z"/>
		<path d="M1021.4,514.3v9.8l1.6,0.2v0.7h-4.8v-0.7l1.6-0.2v-8.8l-1.6-0.2v-0.7L1021.4,514.3L1021.4,514.3z M1020.4,509.5    c0.6,0,1.1,0.2,1.1,1.1c0,0.7-0.4,1.1-1.1,1.1c-0.8,0-1.1-0.4-1.1-1C1019.4,510,1019.7,509.5,1020.4,509.5z"/>
		<path d="M1029.3,514.2c3,0,4.6,2.2,4.6,5.5s-1.8,5.5-4.7,5.5s-4.6-2.2-4.6-5.5S1026.5,514.2,1029.3,514.2L1029.3,514.2z     M1029.2,515.1c-2.4,0-2.9,2.3-2.9,4.5s0.5,4.6,3,4.6s2.9-2.2,2.9-4.5S1031.7,515.1,1029.2,515.1L1029.2,515.1z"/>
		<path d="M1038.6,514.3l0.1,2c0.6-1,1.9-2.1,3.7-2.1c2.3,0,3.2,1.2,3.2,3.7v6.2l1.4,0.2v0.7h-4.5v-0.7l1.6-0.2v-6.2    c0-1.7-0.4-2.5-2.2-2.5c-1.7,0-3.1,1.1-3.1,2.8v5.9l1.6,0.2v0.7h-4.5v-0.7l1.4-0.2v-8.8l-1.4-0.2v-0.7L1038.6,514.3L1038.6,514.3z    "/>
	</g>
	<g>
		<polygon class="st2" points="884.6,441.7 867,472.1 831.5,472.1 825,483.2 860.6,483.3 853.2,496.1 866.1,496.1 897.5,441.7   "/>
		<polygon class="st2" points="910.7,441.7 893.1,472.1 883.6,472.1 877.2,483.2 886.7,483.3 879.3,496.1 892.2,496.1 923.6,441.7       "/>
		<polygon class="st2" points="929.8,441.7 898.3,496.1 911.3,496.1 942.7,441.7   "/>
		<polygon class="st2" points="967.3,441.7 944.5,481 944.5,444.7 933.6,463.4 933.6,472.1 928.6,472.1 922.1,483.2 933.6,483.3     933.6,496.1 948.7,496.1 980.2,441.7   "/>
		<path class="st2" d="M1012.2,453.2h35.4l6.8-11.6h-47.2c-2.2,0-4.3,1.2-5.5,3.1L989,466.7c-1.9,3.2,0.4,7.3,4.2,7.3h16.9l-5.7,9.5    c-0.6,0.9-1.5,1.5-2.6,1.5h-19.5v-40l-10.9,18.7v8.5l-5,0l-6.5,11.2l11.5,0v12.8h35.4c2.2,0,4.3-1.2,5.5-3.1l13.5-23.1    c1.9-3.2-0.4-7.2-4.1-7.2h-16.4l4.8-8.2C1010.5,453.7,1011.4,453.2,1012.2,453.2L1012.2,453.2z"/>
	</g>
</g>
<div xmlns="" id="divScriptsUsed" style="display: none"/><script xmlns="" id="globalVarsDetection" src="moz-extension://15835c44-18a5-4e46-b21c-a6bf96f3b46a/js/wrs_env.js"/></svg>