<svg xmlns="http://www.w3.org/2000/svg" viewBox="0 0 24 24"><rect width="24" height="24" rx="6" fill="#3a2b1a"/><g shape-rendering="crispEdges"><rect x="11.5" y="5" width="1" height="1" fill="#c8622a"/><rect x="10.5" y="6" width="2" height="1" fill="#ef8a3c"/><rect x="12.5" y="6" width="1" height="1" fill="#c8622a"/><rect x="6.5" y="7" width="1" height="1" fill="#c8622a"/><rect x="9.5" y="7" width="2" height="1" fill="#ef8a3c"/><rect x="11.5" y="7" width="1" height="1" fill="#c8622a"/><rect x="12.5" y="7" width="1" height="1" fill="#ef8a3c"/><rect x="13.5" y="7" width="1" height="1" fill="#c8622a"/><rect x="16.5" y="7" width="1" height="1" fill="#c8622a"/><rect x="6.5" y="8" width="1" height="1" fill="#ef8a3c"/><rect x="7.5" y="8" width="1" height="1" fill="#c8622a"/><rect x="9.5" y="8" width="2" height="1" fill="#ef8a3c"/><rect x="11.5" y="8" width="1" height="1" fill="#c8622a"/><rect x="12.5" y="8" width="1" height="1" fill="#ef8a3c"/><rect x="13.5" y="8" width="1" height="1" fill="#c8622a"/><rect x="15.5" y="8" width="1" height="1" fill="#ef8a3c"/><rect x="16.5" y="8" width="1" height="1" fill="#c8622a"/><rect x="4.5" y="9" width="1" height="1" fill="#c8622a"/><rect x="6.5" y="9" width="5" height="1" fill="#ef8a3c"/><rect x="11.5" y="9" width="1" height="1" fill="#c8622a"/><rect x="12.5" y="9" width="4" height="1" fill="#ef8a3c"/><rect x="16.5" y="9" width="1" height="1" fill="#c8622a"/><rect x="18.5" y="9" width="1" height="1" fill="#c8622a"/><rect x="4.5" y="10" width="1" height="1" fill="#c8622a"/><rect x="5.5" y="10" width="1" height="1" fill="#ef8a3c"/><rect x="6.5" y="10" width="1" height="1" fill="#c8622a"/><rect x="7.5" y="10" width="3" height="1" fill="#ef8a3c"/><rect x="10.5" y="10" width="3" height="1" fill="#c8622a"/><rect x="13.5" y="10" width="3" height="1" fill="#ef8a3c"/><rect x="16.5" y="10" width="1" height="1" fill="#c8622a"/><rect x="17.5" y="10" width="1" height="1" fill="#ef8a3c"/><rect x="18.5" y="10" width="1" height="1" fill="#c8622a"/><rect x="5.5" y="11" width="1" height="1" fill="#c8622a"/><rect x="6.5" y="11" width="1" height="1" fill="#ef8a3c"/><rect x="7.5" y="11" width="1" height="1" fill="#c8622a"/><rect x="8.5" y="11" width="2" height="1" fill="#ef8a3c"/><rect x="10.5" y="11" width="3" height="1" fill="#c8622a"/><rect x="13.5" y="11" width="2" height="1" fill="#ef8a3c"/><rect x="15.5" y="11" width="1" height="1" fill="#c8622a"/><rect x="16.5" y="11" width="1" height="1" fill="#ef8a3c"/><rect x="17.5" y="11" width="1" height="1" fill="#c8622a"/><rect x="6.5" y="12" width="3" height="1" fill="#ef8a3c"/><rect x="9.5" y="12" width="1" height="1" fill="#c8622a"/><rect x="10.5" y="12" width="1" height="1" fill="#ef8a3c"/><rect x="11.5" y="12" width="1" height="1" fill="#c8622a"/><rect x="12.5" y="12" width="1" height="1" fill="#ef8a3c"/><rect x="13.5" y="12" width="1" height="1" fill="#c8622a"/><rect x="14.5" y="12" width="2" height="1" fill="#ef8a3c"/><rect x="16.5" y="12" width="1" height="1" fill="#c8622a"/><rect x="5.5" y="13" width="6" height="1" fill="#ef8a3c"/><rect x="11.5" y="13" width="1" height="1" fill="#c8622a"/><rect x="12.5" y="13" width="6" height="1" fill="#ef8a3c"/><rect x="18.5" y="13" width="1" height="1" fill="#c8622a"/><rect x="4.5" y="14" width="3" height="1" fill="#c8622a"/><rect x="7.5" y="14" width="9" height="1" fill="#ef8a3c"/><rect x="16.5" y="14" width="3" height="1" fill="#c8622a"/><rect x="7.5" y="15" width="2" height="1" fill="#c8622a"/><rect x="9.5" y="15" width="2" height="1" fill="#ef8a3c"/><rect x="11.5" y="15" width="1" height="1" fill="#c8622a"/><rect x="12.5" y="15" width="2" height="1" fill="#ef8a3c"/><rect x="14.5" y="15" width="2" height="1" fill="#c8622a"/><rect x="9.5" y="16" width="5" height="1" fill="#c8622a"/><rect x="11.5" y="17" width="1" height="1" fill="#6e4220"/><rect x="11.5" y="18" width="1" height="1" fill="#6e4220"/></g></svg>
